<?xml version="1.0" standalone="no"?><!DOCTYPE svg PUBLIC "-//W3C//DTD SVG 1.1//EN" "http://www.w3.org/Graphics/SVG/1.1/DTD/svg11.dtd"><svg t="1618053588155" class="icon" viewBox="0 0 1024 1024" version="1.1" xmlns="http://www.w3.org/2000/svg" p-id="4531" xmlns:xlink="http://www.w3.org/1999/xlink" width="200" height="200"><defs><style type="text/css"></style></defs><path d="M468.39808 926.72a101.4272 101.4272 0 1 1 101.41696-101.4272A101.53984 101.53984 0 0 1 468.39808 926.72z m0-149.95456a48.52736 48.52736 0 1 0 48.52224 48.52736 48.57856 48.57856 0 0 0-48.52224-48.52736zM799.88224 926.72a101.4272 101.4272 0 1 1 101.41696-101.4272A101.53984 101.53984 0 0 1 799.88224 926.72z m0-149.95456a48.52736 48.52736 0 1 0 48.51712 48.52736 48.58368 48.58368 0 0 0-48.51712-48.52736z m27.648-127.2064H418.53952a45.19936 45.19936 0 0 1-42.74688-30.52544l-145.7152-424.71936-145.75104-50.7136a26.44992 26.44992 0 0 1 17.3824-49.96608l149.10976 51.88608a45.34272 45.34272 0 0 1 28.07296 28.07296l145.14688 423.0656h397.7216l85.95968-292.31616-266.55744-71.99744-89.35936 30.09024a26.44992 26.44992 0 0 1-16.896-50.14016l87.86432-29.58336a45.2864 45.2864 0 0 1 29.64992-2.11456l276.66944 74.752a45.19424 45.19424 0 0 1 31.57504 56.38656l-89.79456 305.37728a45.44512 45.44512 0 0 1-43.35616 32.44544zM233.5488 195.52256l0.14336 0.0512z" fill="#BC1515" p-id="4532"></path></svg>